# xmcd CD database file
#
# Track frame offsets:
#	150
#	14753
#	28858
#	43199
#	56072
#	69705
#	83941
#	96421
#	109975
#	121833
#	134624
#	150062
#	165277
#	179851
#	194453
#	208554
#
# Disc length: 2944 seconds
#
# Revision: 0
# Processed by: cddbd v1.5.2PL0 Copyright (c) Steve Scherf et al.
# Submitted via: CDex 1.70beta2
#
DISCID=e90b7e10
DTITLE=Red McKenzie - Mound City Blue Blowers, 1935-1936
DYEAR=1936
DGENRE=Jazz
TTITLE0=What's The Reason (I'm Not Pleasin' You)
TTITLE1=She's A Latin From Manhattan
TTITLE2=You've Been Takin' Lessons In Love
TTITLE3=Indiana
TTITLE4=The Broken Record
TTITLE5=Music Goes 'Round and Around
TTITLE6=I'm Gonna Sit Right Down And Write Myself A Letter
TTITLE7=Mama Don't Allow It
TTITLE8=Rhythm In My Nursery Rhymes
TTITLE9=Hope Gabriel Likes My Music
TTITLE10=Sin and Old Fashioned Song
TTITLE11=I'm Building Up To An Awful Letdown
TTITLE12=Don't Count Your Kisses (Before You're Kissed)
TTITLE13=When Love Has Gone
TTITLE14=I Don't Know Your Name (But You're Beautiful)
TTITLE15=Moon Rose
EXTD=YEAR: 1936
EXTT0=
EXTT1=
EXTT2=
EXTT3=
EXTT4=
EXTT5=
EXTT6=
EXTT7=
EXTT8=
EXTT9=
EXTT10=
EXTT11=
EXTT12=
EXTT13=
EXTT14=
EXTT15=
PLAYORDER=
